<?xml version="1.0" standalone="no"?>
<!DOCTYPE svg PUBLIC "-//W3C//DTD SVG 20010904//EN"
 "http://www.w3.org/TR/2001/REC-SVG-20010904/DTD/svg10.dtd">
<svg version="1.0" xmlns="http://www.w3.org/2000/svg"
 width="512.000000pt" height="512.000000pt" viewBox="0 0 512.000000 512.000000"
 preserveAspectRatio="xMidYMid meet">

<g transform="translate(0.000000,512.000000) scale(0.100000,-0.100000)"
fill="#000000" stroke="none">
<path d="M959 4027 c-29 -15 -54 -40 -74 -71 -25 -41 -29 -58 -29 -116 0 -58
4 -75 29 -116 20 -31 45 -56 74 -71 l44 -23 1557 0 1557 0 44 23 c29 15 54 40
74 71 25 41 29 58 29 116 0 58 -4 75 -29 116 -20 31 -45 56 -74 71 l-44 23
-1557 0 -1557 0 -44 -23z"/>
<path d="M959 2747 c-29 -15 -54 -40 -74 -71 -25 -41 -29 -58 -29 -116 0 -58
4 -75 29 -116 20 -31 45 -56 74 -71 l44 -23 1557 0 1557 0 44 23 c29 15 54 40
74 71 25 41 29 58 29 116 0 58 -4 75 -29 116 -20 31 -45 56 -74 71 l-44 23
-1557 0 -1557 0 -44 -23z"/>
<path d="M959 1467 c-29 -15 -54 -40 -74 -71 -25 -41 -29 -58 -29 -116 0 -58
4 -75 29 -116 20 -31 45 -56 74 -71 l44 -23 1557 0 1557 0 44 23 c29 15 54 40
74 71 25 41 29 58 29 116 0 58 -4 75 -29 116 -20 31 -45 56 -74 71 l-44 23
-1557 0 -1557 0 -44 -23z"/>
</g>
</svg>
