<?xml version="1.0" encoding="UTF-8"?>
<!DOCTYPE svg PUBLIC "-//W3C//DTD SVG 1.1//EN" "http://www.w3.org/Graphics/SVG/1.1/DTD/svg11.dtd">
<svg xmlns="http://www.w3.org/2000/svg" version="1.1" width="1152px" height="648px" style="shape-rendering:geometricPrecision; text-rendering:geometricPrecision; image-rendering:optimizeQuality; fill-rule:evenodd; clip-rule:evenodd" xmlns:xlink="http://www.w3.org/1999/xlink">
<g><path style="opacity:1" fill="#fefefe" d="M -0.5,-0.5 C 383.5,-0.5 767.5,-0.5 1151.5,-0.5C 1151.5,215.5 1151.5,431.5 1151.5,647.5C 767.5,647.5 383.5,647.5 -0.5,647.5C -0.5,431.5 -0.5,215.5 -0.5,-0.5 Z"/></g>
<g><path style="opacity:1" fill="#0b0b0b" d="M 362.5,23.5 C 362.438,54.5039 370.272,83.5039 386,110.5C 390.744,116.249 395.911,121.749 401.5,127C 414.167,135.333 426.833,143.667 439.5,152C 457.84,159.262 476.507,165.929 495.5,172C 506.412,176.963 517.079,182.296 527.5,188C 529.167,188.667 530.833,188.667 532.5,188C 535.977,186.2 539.644,184.867 543.5,184C 552.521,180.209 561.521,176.209 570.5,172C 592.705,165.357 615.038,159.357 637.5,154C 668.914,149.653 700.247,144.653 731.5,139C 756.75,135.87 782.084,133.537 807.5,132C 832.856,131.113 858.189,131.447 883.5,133C 897.535,135.782 910.202,141.449 921.5,150C 931.689,159.62 935.189,171.454 932,185.5C 930.298,189.438 928.131,193.104 925.5,196.5C 920.503,201.662 914.836,205.829 908.5,209C 894.948,214.943 881.281,220.609 867.5,226C 840.798,229.52 814.131,233.52 787.5,238C 733.194,240.345 678.861,241.012 624.5,240C 603.215,237.517 581.881,237.017 560.5,238.5C 565.392,258.965 570.892,279.298 577,299.5C 580.331,323.384 581.331,347.384 580,371.5C 578.181,383.926 575.848,396.259 573,408.5C 572.333,411.167 572.333,413.833 573,416.5C 583.688,409.826 594.855,403.993 606.5,399C 612.287,397.925 617.954,396.592 623.5,395C 657.092,392.083 690.759,390.583 724.5,390.5C 779.823,391.936 835.156,392.769 890.5,393C 905.898,393.675 921.231,395.008 936.5,397C 955.988,399.864 973.988,406.53 990.5,417C 996.148,421.127 999.648,426.627 1001,433.5C 1006.03,453.443 1002.53,471.443 990.5,487.5C 985.16,491.019 979.994,494.686 975,498.5C 953.943,508.601 931.777,515.101 908.5,518C 878.514,519.476 848.514,519.809 818.5,519C 784.439,516.285 750.439,512.952 716.5,509C 692.459,507.997 668.459,506.331 644.5,504C 614.13,503.331 583.797,501.998 553.5,500C 543.196,498.272 532.863,496.772 522.5,495.5C 509.462,502.37 496.796,509.87 484.5,518C 464.067,538.692 450.233,563.192 443,591.5C 439.327,609.61 437.493,627.944 437.5,646.5C 433.119,646.255 432.286,644.255 435,640.5C 433.789,595.791 447.456,556.458 476,522.5C 486.944,511.945 499.444,503.779 513.5,498C 514.984,496.426 516.651,495.093 518.5,494C 517.167,493.333 517.167,492.667 518.5,492C 523.441,491.41 527.775,489.41 531.5,486C 537.111,480.597 541.611,474.43 545,467.5C 547.745,466.048 550.078,464.048 552,461.5C 561.017,447.451 566.683,432.118 569,415.5C 578.376,377.565 580.043,339.232 574,300.5C 568.701,282.636 564.034,264.636 560,246.5C 556.649,236.475 553.316,226.475 550,216.5C 547.5,212.167 545,207.833 542.5,203.5C 539.242,199.071 535.242,195.571 530.5,193C 518.99,186.745 507.323,180.745 495.5,175C 474.804,169.174 454.804,161.841 435.5,153C 421.998,145.083 408.998,136.416 396.5,127C 382.175,112.529 372.342,95.3628 367,75.5C 361.623,58.4751 360.123,41.1418 362.5,23.5 Z"/></g>
<g><path style="opacity:1" fill="#0c0c0c" d="M 351.5,66.5 C 350.98,74.3393 351.647,82.006 353.5,89.5C 354.998,97.8228 356.498,106.156 358,114.5C 360.889,118.056 362.889,122.056 364,126.5C 371.194,133.694 378.36,140.86 385.5,148C 420.084,159.116 453.751,172.783 486.5,189C 493.702,194.731 501.369,199.731 509.5,204C 512.973,208.806 517.139,212.973 522,216.5C 529.014,228.532 536.014,240.532 543,252.5C 551.302,274.342 557.969,296.675 563,319.5C 565.417,345.497 562.417,370.83 554,395.5C 547.514,411.119 541.18,426.786 535,442.5C 532.71,445.58 530.543,448.747 528.5,452C 518.338,453.017 510.671,457.85 505.5,466.5C 491.472,480.273 477.305,493.94 463,507.5C 447.606,524.895 432.94,542.895 419,561.5C 409.619,576.275 402.952,592.275 399,609.5C 396.629,620.061 394.795,630.728 393.5,641.5C 392.914,641.291 392.414,640.957 392,640.5C 391.833,638.833 391.667,637.167 391.5,635.5C 393.13,617.306 397.463,599.806 404.5,583C 387.167,582.667 369.833,582.333 352.5,582C 332.94,579.195 313.273,577.862 293.5,578C 274.47,575.327 256.137,570.327 238.5,563C 221.624,551.456 209.124,536.289 201,517.5C 200.333,512.167 200.333,506.833 201,501.5C 204.743,496.752 208.909,492.252 213.5,488C 222.547,482.476 231.88,477.476 241.5,473C 269.465,471.385 297.465,471.052 325.5,472C 339.448,473.725 353.448,474.725 367.5,475C 379.451,476.772 391.451,478.106 403.5,479C 417.048,480.856 430.382,483.523 443.5,487C 454.147,488.581 464.813,489.748 475.5,490.5C 484.568,481.595 493.735,472.928 503,464.5C 507.738,456.101 514.904,451.267 524.5,450C 525.931,449.535 527.097,448.701 528,447.5C 540.805,421.978 550.805,395.311 558,367.5C 560.837,349.876 561.17,332.21 559,314.5C 553.646,291.473 546.313,269.14 537,247.5C 531.499,239.169 526.499,230.503 522,221.5C 515.496,214.663 508.662,208.163 501.5,202C 495.863,199.18 490.53,195.847 485.5,192C 475.377,187.185 465.377,182.185 455.5,177C 453.2,176.342 450.867,175.842 448.5,175.5C 419.814,177.335 391.147,179.502 362.5,182C 322.833,182.667 283.167,182.667 243.5,182C 234.751,181.645 226.084,180.645 217.5,179C 201.027,173.55 186.86,164.384 175,151.5C 172.669,146.37 170.336,141.37 168,136.5C 164.378,123.351 168.211,113.185 179.5,106C 185.313,101.843 191.646,98.8432 198.5,97C 229.136,95.3886 259.803,95.0553 290.5,96C 303.813,97.0469 317.146,97.7136 330.5,98C 337.923,98.7506 345.257,99.9173 352.5,101.5C 349.975,82.3346 347.642,63.1679 345.5,44C 346.536,42.3831 347.703,42.2164 349,43.5C 350.708,51.0768 351.541,58.7434 351.5,66.5 Z"/></g>
<g><path style="opacity:1" fill="#fcf020" d="M 353.5,89.5 C 351.647,82.006 350.98,74.3393 351.5,66.5C 352.397,65.4019 353.23,65.4019 354,66.5C 354.333,72.1667 354.667,77.8333 355,83.5C 357.519,87.2414 359.353,91.2414 360.5,95.5C 359.022,95.762 357.689,95.4287 356.5,94.5C 356.043,92.4024 355.043,90.7358 353.5,89.5 Z"/></g>
<g><path style="opacity:1" fill="#fefefe" d="M 206.5,98.5 C 247.534,97.9765 288.534,98.8099 329.5,101C 337.289,101.684 344.956,103.017 352.5,105C 353.383,108.45 354.216,111.95 355,115.5C 357.889,119.056 359.889,123.056 361,127.5C 368.779,135.279 376.613,143.113 384.5,151C 404.413,157.245 424.08,164.579 443.5,173C 416.143,174.67 388.81,176.67 361.5,179C 322.167,179.667 282.833,179.667 243.5,179C 233.742,178.315 224.075,176.982 214.5,175C 208.748,171.457 202.748,168.457 196.5,166C 190.016,161.18 183.849,156.013 178,150.5C 175.814,145.395 173.48,140.395 171,135.5C 170.333,130.833 170.333,126.167 171,121.5C 171.444,118.389 172.777,115.723 175,113.5C 184.129,105.307 194.629,100.307 206.5,98.5 Z"/></g>
<g><path style="opacity:1" fill="#fff332" d="M 366.5,108.5 C 368.017,108.511 369.184,109.177 370,110.5C 374.962,119.446 380.128,128.113 385.5,136.5C 382.976,136.571 380.976,135.571 379.5,133.5C 374.908,126.225 370.408,118.891 366,111.5C 365.53,110.423 365.697,109.423 366.5,108.5 Z"/></g>
<g><path style="opacity:1" fill="#fefefe" d="M 808.5,134.5 C 833.193,134.105 857.86,134.605 882.5,136C 892.96,138.447 902.96,142.114 912.5,147C 920.282,152.103 925.782,158.936 929,167.5C 931.514,178.21 929.181,187.543 922,195.5C 916.338,200.51 910.171,204.677 903.5,208C 891.51,213.776 879.177,218.776 866.5,223C 840.202,226.578 813.869,230.578 787.5,235C 733.194,237.327 678.86,237.994 624.5,237C 602.876,235.175 581.209,234.009 559.5,233.5C 556.165,222.174 551.332,211.507 545,201.5C 541.585,197.578 537.751,194.244 533.5,191.5C 546.014,186.705 558.347,181.205 570.5,175C 580.823,173.134 590.823,170.134 600.5,166C 613.317,163.901 625.984,160.901 638.5,157C 669.941,152.645 701.275,147.645 732.5,142C 757.933,139.028 783.266,136.528 808.5,134.5 Z"/></g>
<g><path style="opacity:1" fill="#fff336" d="M 394.5,137.5 C 401.968,141.806 409.302,146.306 416.5,151C 418.025,152.009 419.692,152.509 421.5,152.5C 421.5,153.5 421.5,154.5 421.5,155.5C 419.473,155.662 417.473,155.495 415.5,155C 408.849,150.005 401.849,145.505 394.5,141.5C 393.374,140.192 393.374,138.858 394.5,137.5 Z"/></g>
<g><path style="opacity:1" fill="#fff32e" d="M 443.5,160.5 C 456.621,165.373 469.621,170.706 482.5,176.5C 483.386,177.325 483.719,178.325 483.5,179.5C 470.926,174.378 458.259,169.544 445.5,165C 442.985,164.061 442.318,162.561 443.5,160.5 Z"/></g>
<g><path style="opacity:1" fill="#fff33a" d="M 505.5,188.5 C 510.818,194.981 516.985,200.647 524,205.5C 524.483,206.448 524.649,207.448 524.5,208.5C 523.127,208.657 521.793,208.49 520.5,208C 515.006,203.505 509.839,198.672 505,193.5C 504.36,191.735 504.527,190.068 505.5,188.5 Z"/></g>
<g><path style="opacity:1" fill="#fff332" d="M 538.5,225.5 C 545.724,231.94 550.391,239.94 552.5,249.5C 551.325,249.719 550.325,249.386 549.5,248.5C 546.335,241.163 542.335,234.33 537.5,228C 537.743,227.098 538.077,226.265 538.5,225.5 Z"/></g>
<g><path style="opacity:1" fill="#fff229" d="M 560.5,272.5 C 562.937,276.948 565.104,281.615 567,286.5C 567.953,289.432 568.453,292.432 568.5,295.5C 566.876,295.64 565.71,294.973 565,293.5C 563.737,288.379 562.071,283.379 560,278.5C 559.322,276.402 559.489,274.402 560.5,272.5 Z"/></g>
<g><path style="opacity:1" fill="#fff216" d="M 572.5,323.5 C 573.117,323.611 573.617,323.944 574,324.5C 574.666,331.493 575.166,338.493 575.5,345.5C 574.5,345.5 573.5,345.5 572.5,345.5C 571.443,338.104 571.443,330.771 572.5,323.5 Z"/></g>
<g><path style="opacity:1" fill="#fff21c" d="M 564.5,391.5 C 565.117,391.611 565.617,391.944 566,392.5C 566.167,393.833 566.333,395.167 566.5,396.5C 565.67,400.817 565.003,405.15 564.5,409.5C 563.022,409.762 561.689,409.429 560.5,408.5C 562.26,402.897 563.593,397.231 564.5,391.5 Z"/></g>
<g><path style="opacity:1" fill="#fefefe" d="M 693.5,393.5 C 759.159,394.725 824.826,395.558 890.5,396C 905.898,396.675 921.231,398.008 936.5,400C 957.773,403.273 976.939,411.44 994,424.5C 1007.71,460.894 996.874,486.728 961.5,502C 951.746,503.947 942.413,506.947 933.5,511C 925.22,512.577 916.887,513.91 908.5,515C 878.181,516.479 847.847,516.812 817.5,516C 783.118,513.205 748.784,509.872 714.5,506C 691.13,504.909 667.797,503.242 644.5,501C 606.695,500.23 569.029,497.897 531.5,494C 530.167,493.667 528.833,493.333 527.5,493C 531,490.167 534.5,487.333 538,484.5C 542.916,476.584 548.583,469.251 555,462.5C 563.16,449.35 568.66,435.183 571.5,420C 575.76,418.868 579.76,417.201 583.5,415C 595.88,406.207 609.547,400.541 624.5,398C 647.63,396.158 670.63,394.658 693.5,393.5 Z"/></g>
<g><path style="opacity:1" fill="#fff323" d="M 550.5,430.5 C 551.478,430.811 552.145,431.478 552.5,432.5C 549.898,437.762 546.898,442.762 543.5,447.5C 542.675,448.386 541.675,448.719 540.5,448.5C 540.687,446.436 541.187,444.436 542,442.5C 545.089,438.646 547.922,434.646 550.5,430.5 Z"/></g>
<g><path style="opacity:1" fill="#fff32b" d="M 524.5,464.5 C 525.5,464.5 526.5,464.5 527.5,464.5C 523.542,472.124 517.875,478.124 510.5,482.5C 509.068,482.267 508.568,481.6 509,480.5C 514.386,475.411 519.552,470.077 524.5,464.5 Z"/></g>
<g><path style="opacity:1" fill="#fefefe" d="M 248.5,474.5 C 306.815,473.032 364.815,476.532 422.5,485C 439.128,489.628 456.128,492.295 473.5,493C 470.794,495.371 468.461,498.037 466.5,501C 463.667,503.167 460.833,505.333 458,507.5C 446.478,522.534 434.478,537.201 422,551.5C 415.871,560.252 410.371,569.419 405.5,579C 379.065,580.319 352.732,579.319 326.5,576C 296.089,577.434 267.089,572.101 239.5,560C 223.523,548.878 211.69,534.378 204,516.5C 202.828,510.508 203.495,504.841 206,499.5C 218.425,487.844 232.592,479.511 248.5,474.5 Z"/></g>
<g><path style="opacity:1" fill="#fff33a" d="M 488.5,495.5 C 489.5,495.5 490.5,495.5 491.5,495.5C 491.579,496.93 491.246,498.264 490.5,499.5C 486.409,502.937 482.075,505.937 477.5,508.5C 476.068,508.267 475.568,507.6 476,506.5C 480.36,502.968 484.527,499.301 488.5,495.5 Z"/></g>
<g><path style="opacity:1" fill="#fff333" d="M 459.5,520.5 C 460.5,520.5 461.5,520.5 462.5,520.5C 462.649,521.552 462.483,522.552 462,523.5C 455.928,530.069 450.428,537.069 445.5,544.5C 444.675,545.386 443.675,545.719 442.5,545.5C 442.264,542.774 443.097,540.441 445,538.5C 449.667,532.336 454.5,526.336 459.5,520.5 Z"/></g>
<g><path style="opacity:1" fill="#fff32d" d="M 435.5,555.5 C 436.5,555.5 437.5,555.5 438.5,555.5C 438.121,559.015 437.121,562.348 435.5,565.5C 434.675,566.386 433.675,566.719 432.5,566.5C 433.21,562.749 434.21,559.082 435.5,555.5 Z"/></g>
<g><path style="opacity:1" fill="#fff222" d="M 424.5,590.5 C 425.993,591.312 426.66,592.645 426.5,594.5C 425.828,597.512 425.161,600.512 424.5,603.5C 423.5,603.5 422.5,603.5 421.5,603.5C 422.206,599.091 423.206,594.758 424.5,590.5 Z"/></g>
<g><path style="opacity:1" fill="#fff220" d="M 418.5,622.5 C 419.947,623.134 420.613,624.301 420.5,626C 418.504,631.322 417.337,636.822 417,642.5C 415.989,643.337 414.822,643.67 413.5,643.5C 413.791,636.151 415.458,629.151 418.5,622.5 Z"/></g>
</svg>
