<?xml version="1.0" standalone="no"?>
<!DOCTYPE svg PUBLIC "-//W3C//DTD SVG 20010904//EN"
 "http://www.w3.org/TR/2001/REC-SVG-20010904/DTD/svg10.dtd">
<svg version="1.0" xmlns="http://www.w3.org/2000/svg"
 width="512.000000pt" height="512.000000pt" viewBox="0 0 512.000000 512.000000"
 preserveAspectRatio="xMidYMid meet">

<g transform="translate(0.000000,512.000000) scale(0.100000,-0.100000)"
fill="#000000" stroke="none">
<path d="M1770 5043 c-270 -27 -483 -85 -695 -190 -596 -297 -997 -899 -1034
-1557 -31 -553 159 -1058 543 -1442 324 -324 729 -508 1196 -544 331 -25 671
44 971 197 200 101 352 215 514 385 129 135 217 260 304 428 234 456 273 966
110 1455 -208 625 -750 1104 -1394 1234 -167 34 -380 48 -515 34z m385 -588
c260 -53 484 -173 670 -360 188 -187 305 -406 362 -675 24 -118 24 -372 0
-490 -57 -266 -177 -490 -364 -676 -248 -248 -566 -378 -923 -377 -355 1 -656
127 -911 382 -255 255 -381 558 -381 916 1 219 40 392 133 577 203 406 572
662 1039 722 68 8 297 -3 375 -19z"/>
<path d="M3515 1958 c-63 -86 -231 -262 -328 -344 l-58 -49 151 -150 150 -150
230 230 230 230 -157 157 -158 158 -60 -82z"/>
<path d="M4055 1666 c-16 -8 -150 -135 -297 -282 -227 -229 -267 -274 -273
-306 -15 -82 -21 -74 439 -536 237 -239 448 -442 468 -453 44 -23 77 -24 121
-5 18 8 150 132 294 277 280 283 290 297 273 375 -7 32 -76 105 -447 477 -247
247 -452 445 -470 453 -40 17 -69 17 -108 0z"/>
</g>
</svg>
