<?xml version="1.0" standalone="no"?>
<!DOCTYPE svg PUBLIC "-//W3C//DTD SVG 20010904//EN"
 "http://www.w3.org/TR/2001/REC-SVG-20010904/DTD/svg10.dtd">
<svg version="1.0" xmlns="http://www.w3.org/2000/svg"
 width="512.000000pt" height="512.000000pt" viewBox="0 0 512.000000 512.000000"
 preserveAspectRatio="xMidYMid meet">

<g transform="translate(0.000000,512.000000) scale(0.100000,-0.100000)"
fill="#000000" stroke="none">
<path d="M2315 5109 c-800 -83 -1501 -518 -1927 -1196 -469 -746 -515 -1705
-119 -2493 146 -290 325 -526 571 -752 774 -711 1920 -870 2861 -398 611 306
1076 843 1289 1488 92 278 125 491 125 802 0 301 -32 513 -116 775 -124 390
-330 728 -622 1024 -399 404 -893 653 -1462 737 -123 18 -478 26 -600 13z
m585 -264 c569 -88 1066 -368 1432 -805 276 -330 446 -711 514 -1150 25 -160
25 -500 0 -660 -68 -439 -238 -820 -514 -1150 -368 -440 -863 -717 -1442 -806
-159 -25 -500 -25 -660 -1 -483 74 -913 284 -1261 615 -387 368 -622 830 -701
1377 -19 135 -16 484 5 625 107 696 495 1280 1095 1647 293 180 620 286 1007
327 85 9 424 -4 525 -19z"/>
<path d="M2397 4294 c-97 -17 -206 -59 -300 -115 -98 -58 -238 -201 -299 -304
-87 -148 -139 -363 -123 -514 37 -373 261 -659 607 -779 95 -33 115 -36 243
-40 159 -4 231 7 363 58 364 140 600 533 552 921 -25 206 -107 375 -255 525
-209 212 -493 301 -788 248z"/>
<path d="M1896 2329 c-162 -24 -337 -96 -458 -188 -191 -145 -313 -328 -376
-560 -24 -89 -25 -112 -26 -321 -1 -219 0 -226 23 -274 31 -63 90 -122 150
-150 l46 -21 1305 0 1305 0 46 21 c60 28 119 87 150 150 23 48 24 55 23 274
-1 210 -3 232 -27 324 -96 360 -362 625 -726 724 l-96 26 -640 2 c-352 1 -667
-2 -699 -7z"/>
</g>
</svg>
